<?xml version="1.0" encoding="UTF-8"?>
<svg width="16px" height="16px" viewBox="0 0 16 16" version="1.1" xmlns="http://www.w3.org/2000/svg" xmlns:xlink="http://www.w3.org/1999/xlink">
    <title>ICON / Place / Desktop</title>
    <g id="任务栏/快捷面板" stroke="none" stroke-width="1" fill="none" fill-rule="evenodd">
        <g id="任务栏-尺寸" transform="translate(-64, -291)" fill="#000000" fill-rule="nonzero">
            <g id="Dock_FMode" transform="translate(10, 277)">
                <g id="ICON-/-Place-/-Desktop" transform="translate(55, 16)">
                    <path d="M12,0 C13.1045695,0 14,0.8954305 14,2 L14,10 C14,11.1045695 13.1045695,12 12,12 L2,12 C0.8954305,12 0,11.1045695 0,10 L0,2 C0,0.8954305 0.8954305,0 2,0 L12,0 Z M12,1 L2,1 C1.44771525,1 1,1.39339156 1,2 L1,10 C1,10.5522847 1.44771525,11 2,11 L12,11 C12.5522847,11 13,10.5522847 13,10 L13,2 C13,1.44771525 12.5522847,1 12,1 Z M10.5,8 C10.7761424,8 11,8.22385763 11,8.5 L11,9.5 C11,9.77614237 10.7761424,10 10.5,10 L3.5,10 C3.22385763,10 3,9.77614237 3,9.5 L3,8.5 C3,8.22385763 3.22385763,8 3.5,8 L10.5,8 Z M3,4 L3,5 L2,5 L2,4 L3,4 Z M3,2 L3,3 L2,3 L2,2 L3,2 Z" id="形状结合"></path>
                </g>
            </g>
        </g>
    </g>
</svg>