<?xml version="1.0" encoding="us-ascii" standalone="no"?><svg xmlns="http://www.w3.org/2000/svg" xmlns:xlink="http://www.w3.org/1999/xlink" contentStyleType="text/css" height="825px" preserveAspectRatio="none" style="width:658px;height:825px;background:#FFFFFF;" version="1.1" viewBox="0 0 658 825" width="658px" zoomAndPan="magnify"><defs/><g><text fill="#000000" font-family="sans-serif" font-size="14" font-weight="bold" lengthAdjust="spacing" textLength="372" x="139" y="31.2399">Qt Wayland Compositor &#19982; pluginloader &#36719;&#20214;&#30340;&#36890;&#20449;&#27969;&#31243;</text><line style="stroke:#181818;stroke-width:0.5;stroke-dasharray:5.0,5.0;" x1="22" x2="22" y1="126.5438" y2="740.7281"/><line style="stroke:#181818;stroke-width:0.5;stroke-dasharray:5.0,5.0;" x1="140" x2="140" y1="126.5438" y2="740.7281"/><line style="stroke:#181818;stroke-width:0.5;stroke-dasharray:5.0,5.0;" x1="468" x2="468" y1="126.5438" y2="740.7281"/><text fill="#000000" font-family="sans-serif" font-size="14" lengthAdjust="spacing" textLength="28" x="5" y="122.5118">&#29992;&#25143;</text><ellipse cx="22" cy="54.7719" fill="#E2E2F0" rx="8" ry="8" style="stroke:#181818;stroke-width:0.5;"/><path d="M22,62.7719 L22,89.7719 M9,70.7719 L35,70.7719 M22,89.7719 L9,104.7719 M22,89.7719 L35,104.7719 " fill="none" style="stroke:#181818;stroke-width:0.5;"/><text fill="#000000" font-family="sans-serif" font-size="14" lengthAdjust="spacing" textLength="28" x="5" y="755.968">&#29992;&#25143;</text><ellipse cx="22" cy="768.5" fill="#E2E2F0" rx="8" ry="8" style="stroke:#181818;stroke-width:0.5;"/><path d="M22,776.5 L22,803.5 M9,784.5 L35,784.5 M22,803.5 L9,818.5 M22,803.5 L35,818.5 " fill="none" style="stroke:#181818;stroke-width:0.5;"/><rect fill="#E2E2F0" height="34.2719" rx="2.5" ry="2.5" style="stroke:#181818;stroke-width:0.5;" width="182" x="49" y="91.2719"/><text fill="#000000" font-family="sans-serif" font-size="14" lengthAdjust="spacing" textLength="168" x="56" y="114.5118">Client &#24212;&#29992; (pluginloader)</text><rect fill="#E2E2F0" height="34.2719" rx="2.5" ry="2.5" style="stroke:#181818;stroke-width:0.5;" width="182" x="49" y="739.7281"/><text fill="#000000" font-family="sans-serif" font-size="14" lengthAdjust="spacing" textLength="168" x="56" y="762.968">Client &#24212;&#29992; (pluginloader)</text><rect fill="#E2E2F0" height="54.5438" rx="2.5" ry="2.5" style="stroke:#181818;stroke-width:0.5;" width="178" x="379" y="71"/><text fill="#000000" font-family="sans-serif" font-size="14" lengthAdjust="spacing" textLength="121" x="407.5" y="94.2399">Compositor &#26381;&#21153;&#31471;</text><text fill="#000000" font-family="sans-serif" font-size="14" lengthAdjust="spacing" textLength="164" x="386" y="114.5118">(Qt Wayland Compositor)</text><rect fill="#E2E2F0" height="54.5438" rx="2.5" ry="2.5" style="stroke:#181818;stroke-width:0.5;" width="178" x="379" y="739.7281"/><text fill="#000000" font-family="sans-serif" font-size="14" lengthAdjust="spacing" textLength="121" x="407.5" y="762.968">Compositor &#26381;&#21153;&#31471;</text><text fill="#000000" font-family="sans-serif" font-size="14" lengthAdjust="spacing" textLength="164" x="386" y="783.2399">(Qt Wayland Compositor)</text><rect fill="#EEEEEE" height="3" style="stroke:#EEEEEE;stroke-width:1.0;" width="651" x="0" y="158.9558"/><line style="stroke:#000000;stroke-width:1.0;" x1="0" x2="651" y1="158.9558" y2="158.9558"/><line style="stroke:#000000;stroke-width:1.0;" x1="0" x2="651" y1="161.9558" y2="161.9558"/><rect fill="#EEEEEE" height="26.824" style="stroke:#000000;stroke-width:2.0;" width="69" x="291" y="146.5438"/><text fill="#000000" font-family="sans-serif" font-size="13" font-weight="bold" lengthAdjust="spacing" textLength="52" x="297" y="165.6238">&#36830;&#25509;&#24314;&#31435;</text><polygon fill="#181818" points="128,204.1919,138,208.1919,128,212.1919,132,208.1919" style="stroke:#181818;stroke-width:1.0;"/><line style="stroke:#181818;stroke-width:1.0;" x1="22" x2="134" y1="208.1919" y2="208.1919"/><text fill="#000000" font-family="sans-serif" font-size="13" lengthAdjust="spacing" textLength="78" x="29" y="202.4479">&#21551;&#21160;&#24212;&#29992;&#31243;&#24207;</text><polygon fill="#181818" points="456,237.0159,466,241.0159,456,245.0159,460,241.0159" style="stroke:#181818;stroke-width:1.0;"/><line style="stroke:#181818;stroke-width:1.0;" x1="140" x2="462" y1="241.0159" y2="241.0159"/><text fill="#000000" font-family="sans-serif" font-size="13" lengthAdjust="spacing" textLength="136" x="147" y="235.2719">&#36830;&#25509;&#21040; Wayland &#21512;&#25104;&#22120;</text><polygon fill="#181818" points="151,269.8399,141,273.8399,151,277.8399,147,273.8399" style="stroke:#181818;stroke-width:1.0;"/><line style="stroke:#181818;stroke-width:1.0;stroke-dasharray:2.0,2.0;" x1="145" x2="467" y1="273.8399" y2="273.8399"/><text fill="#000000" font-family="sans-serif" font-size="13" lengthAdjust="spacing" textLength="234" x="157" y="268.0959">&#21457;&#36865; wl_display/wl_registry &#31561;&#25509;&#21475;&#20449;&#24687;</text><rect fill="#EEEEEE" height="3" style="stroke:#EEEEEE;stroke-width:1.0;" width="651" x="0" y="304.2519"/><line style="stroke:#000000;stroke-width:1.0;" x1="0" x2="651" y1="304.2519" y2="304.2519"/><line style="stroke:#000000;stroke-width:1.0;" x1="0" x2="651" y1="307.2519" y2="307.2519"/><rect fill="#EEEEEE" height="26.824" style="stroke:#000000;stroke-width:2.0;" width="135" x="258" y="291.8399"/><text fill="#000000" font-family="sans-serif" font-size="13" font-weight="bold" lengthAdjust="spacing" textLength="118" x="264" y="310.9199">Surface &#21019;&#24314;&#19982;&#32465;&#23450;</text><polygon fill="#181818" points="456,349.4879,466,353.4879,456,357.4879,460,353.4879" style="stroke:#181818;stroke-width:1.0;"/><line style="stroke:#181818;stroke-width:1.0;" x1="140" x2="462" y1="353.4879" y2="353.4879"/><text fill="#000000" font-family="sans-serif" font-size="13" lengthAdjust="spacing" textLength="304" x="147" y="347.7439">create_surface (wl_compositor) (&#21019;&#24314;&#19968;&#20010; Surface)</text><polygon fill="#181818" points="456,382.3119,466,386.3119,456,390.3119,460,386.3119" style="stroke:#181818;stroke-width:1.0;"/><line style="stroke:#181818;stroke-width:1.0;" x1="140" x2="462" y1="386.3119" y2="386.3119"/><text fill="#000000" font-family="sans-serif" font-size="13" lengthAdjust="spacing" textLength="205" x="147" y="380.5679">get_shell_surface (xdg_surface &#31561;)</text><rect fill="#EEEEEE" height="3" style="stroke:#EEEEEE;stroke-width:1.0;" width="651" x="0" y="416.7239"/><line style="stroke:#000000;stroke-width:1.0;" x1="0" x2="651" y1="416.7239" y2="416.7239"/><line style="stroke:#000000;stroke-width:1.0;" x1="0" x2="651" y1="419.7239" y2="419.7239"/><rect fill="#EEEEEE" height="26.824" style="stroke:#000000;stroke-width:2.0;" width="69" x="291" y="404.3119"/><text fill="#000000" font-family="sans-serif" font-size="13" font-weight="bold" lengthAdjust="spacing" textLength="52" x="297" y="423.392">&#28210;&#26579;&#27969;&#31243;</text><polygon fill="#181818" points="456,461.96,466,465.96,456,469.96,460,465.96" style="stroke:#181818;stroke-width:1.0;"/><line style="stroke:#181818;stroke-width:1.0;" x1="140" x2="462" y1="465.96" y2="465.96"/><text fill="#000000" font-family="sans-serif" font-size="13" lengthAdjust="spacing" textLength="159" x="147" y="460.216">attach(buffer) (&#32465;&#23450;&#32531;&#20914;&#21306;)</text><polygon fill="#181818" points="456,494.784,466,498.784,456,502.784,460,498.784" style="stroke:#181818;stroke-width:1.0;"/><line style="stroke:#181818;stroke-width:1.0;" x1="140" x2="462" y1="498.784" y2="498.784"/><text fill="#000000" font-family="sans-serif" font-size="13" lengthAdjust="spacing" textLength="195" x="147" y="493.04">damage(rect) (&#26631;&#35760;&#21306;&#22495;&#38656;&#35201;&#37325;&#32472;)</text><polygon fill="#181818" points="456,527.608,466,531.608,456,535.608,460,531.608" style="stroke:#181818;stroke-width:1.0;"/><line style="stroke:#181818;stroke-width:1.0;" x1="140" x2="462" y1="531.608" y2="531.608"/><text fill="#000000" font-family="sans-serif" font-size="13" lengthAdjust="spacing" textLength="158" x="147" y="525.864">commit() (&#25552;&#20132;&#32531;&#20914;&#21306;&#26356;&#26032;)</text><line style="stroke:#181818;stroke-width:1.0;" x1="468" x2="510" y1="564.432" y2="564.432"/><line style="stroke:#181818;stroke-width:1.0;" x1="510" x2="510" y1="564.432" y2="577.432"/><line style="stroke:#181818;stroke-width:1.0;" x1="469" x2="510" y1="577.432" y2="577.432"/><polygon fill="#181818" points="479,573.432,469,577.432,479,581.432,475,577.432" style="stroke:#181818;stroke-width:1.0;"/><text fill="#000000" font-family="sans-serif" font-size="13" lengthAdjust="spacing" textLength="169" x="475" y="558.688">&#26816;&#26597; Surface &#29366;&#24577;&#65292;&#21512;&#25104;&#22270;&#23618;</text><polygon fill="#181818" points="151,606.256,141,610.256,151,614.256,147,610.256" style="stroke:#181818;stroke-width:1.0;"/><line style="stroke:#181818;stroke-width:1.0;" x1="145" x2="467" y1="610.256" y2="610.256"/><text fill="#000000" font-family="sans-serif" font-size="13" lengthAdjust="spacing" textLength="201" x="157" y="604.512">frame_done (&#36890;&#30693;&#21487;&#20197;&#28210;&#26579;&#19979;&#19968;&#24103;)</text><rect fill="#EEEEEE" height="3" style="stroke:#EEEEEE;stroke-width:1.0;" width="651" x="0" y="640.668"/><line style="stroke:#000000;stroke-width:1.0;" x1="0" x2="651" y1="640.668" y2="640.668"/><line style="stroke:#000000;stroke-width:1.0;" x1="0" x2="651" y1="643.668" y2="643.668"/><rect fill="#EEEEEE" height="26.824" style="stroke:#000000;stroke-width:2.0;" width="95" x="278" y="628.256"/><text fill="#000000" font-family="sans-serif" font-size="13" font-weight="bold" lengthAdjust="spacing" textLength="78" x="284" y="647.3361">&#36755;&#20837;&#20107;&#20214;&#31034;&#24847;</text><polygon fill="#181818" points="456,685.9041,466,689.9041,456,693.9041,460,689.9041" style="stroke:#181818;stroke-width:1.0;"/><line style="stroke:#181818;stroke-width:1.0;" x1="22" x2="462" y1="689.9041" y2="689.9041"/><text fill="#000000" font-family="sans-serif" font-size="13" lengthAdjust="spacing" textLength="109" x="29" y="684.1601">&#40736;&#26631;&#28857;&#20987;/&#38190;&#30424;&#20107;&#20214;</text><polygon fill="#181818" points="151,718.7281,141,722.7281,151,726.7281,147,722.7281" style="stroke:#181818;stroke-width:1.0;"/><line style="stroke:#181818;stroke-width:1.0;" x1="145" x2="467" y1="722.7281" y2="722.7281"/><text fill="#000000" font-family="sans-serif" font-size="13" lengthAdjust="spacing" textLength="191" x="157" y="716.9841">&#21457;&#36865; pointer/keyboard &#36755;&#20837;&#20107;&#20214;</text><!--SRC=[VPFDRjf058NtVeeHAxE8s4UYcpn1LLNTL48JUo1MZMsD1xNiJ9GM2aaW0bKfH25HGeCI5MZKfjJGv6KyCtZLL-WOcr-LhcpBzvpxpJrtY4Pq19uJy0hcTMYeOCVCMgQj4HC3RtWCB3sNqGpTX2h2OFAxxuqUUFF0TvhUqoNxKU3TYYH19QYEyKQNbNx60BJ1InjXoOAOQ8fcGOE0s8wk8V6aRaEK0NdPDZwLX0LheWKBEpkYvKj-rtzjoF-aZLpctvAKJ8B9qpaxxj2Ho-yg89cKf00CR3sBke5jG6jzMkw6ME8mrArAqR-WQj5_U-PL6ioRqrg9bMhqSrTQAjnQSQ-U-4u1lDLJgcPREimdn2j66SqcE0_uru-1O_Kgc6MXFoL-aSDfg210Ios1BHBWenFQQqxXDu0f6462KdQab4KBPJ4M8C-i76zuE_EFRpBB89Aozv2kB_pUgPdvXq2EWoae6zwpTZrSWV_HGKAWiYVlvj9f5D24v-7ZElrmJm_TZI0gpC8CaZ5IY52nY-AaDn3rjDtspvp9bu9VFEAZquroCO6iHkH0MgrvxlMy8MjzPvy6SMabipKnkt9OkpFFWfSVc5FuCpwC0cyzqc_xw_fPv6aCioYbceQOdBWcl2q25hUc4yxB6rP447Hu4m_tyx5EttSyjn9SgskN7LHNjtGPoXzVY2dm_L-qE4huZHvldOR2JIJHybccPX244szGVjU4M5rfAlq5]--></g></svg>