<?xml version="1.0" encoding="UTF-8"?>
<svg width="32px" height="32px" viewBox="0 0 32 32" version="1.1" xmlns="http://www.w3.org/2000/svg" xmlns:xlink="http://www.w3.org/1999/xlink">
    <title>aistudio</title>
    <g id="aistudio" stroke="none" fill="none" fill-rule="evenodd" stroke-width="1">
        <g id="Google-AI-Studio" transform="translate(2.6667, 0)" fill="#000000">
            <path d="M10.5613335,5.59466667 L5.77066682,5.59466667 C3.77928041,5.59466653 2.16473634,7.20861372 2.16400015,9.2 L2.16400015,24.3493333 C2.16400015,26.3412403 3.77875982,27.956 5.77066682,27.956 L20.9213335,27.956 C22.9132405,27.956 24.5280002,26.3412403 24.5280002,24.3493333 L24.5280002,18.008 L26.6920002,16.524 L26.6920002,24.3506667 C26.6912641,27.5374129 24.1080798,30.1205973 20.9213335,30.1213333 L5.77066682,30.1213333 C2.58392056,30.1205973 0.000736208397,27.5374129 0,24.3506667 L0,9.20133333 C-0.000353521111,7.67062637 0.607469548,6.20249217 1.68971781,5.11999385 C2.77196608,4.03749552 4.23995982,3.42933333 5.77066682,3.42933333 L11.8306668,3.42933333 L10.5613335,5.59466667 Z" id="路径"></path>
            <path d="M21.0933335,0 C21.2866668,0 21.4506668,0.138666667 21.4920002,0.328 C21.8706564,2.08840049 22.7504611,3.70168447 24.0253335,4.97333333 C25.2971786,6.24891667 26.9109719,7.12920965 28.6720002,7.508 C28.8613335,7.54933333 29.0000002,7.71333333 29.0000002,7.908 C28.9976806,8.10108756 28.8611517,8.26647618 28.6720002,8.30533333 C26.9114484,8.68436388 25.2981481,9.56464054 24.0266668,10.84 C22.7344457,12.1281484 21.8481321,13.7668088 21.4773335,15.5533333 C21.4402262,15.7364565 21.2801683,15.8687265 21.0933335,15.8706667 C20.9064986,15.8687265 20.7464408,15.7364565 20.7093335,15.5533333 C20.3385349,13.7668088 19.4522213,12.1281484 18.1600002,10.84 C16.8718518,9.54777889 15.2331914,8.66146526 13.4466668,8.29066667 C13.2635437,8.2535594 13.1312736,8.09350152 13.1293335,7.90666667 C13.1293335,7.72 13.2626668,7.56 13.4466668,7.52266667 C15.2331914,7.15186807 16.8718518,6.26555444 18.1600002,4.97333333 C19.4352981,3.70180593 20.3155643,2.08852495 20.6946668,0.328 C20.7336302,0.138364282 20.8997438,0.00169563317 21.0933335,0 L21.0933335,0 Z" id="路径"></path>
        </g>
    </g>
</svg>