<?xml version="1.0" encoding="UTF-8"?>
<svg width="32px" height="32px" viewBox="0 0 32 32" version="1.1" xmlns="http://www.w3.org/2000/svg" xmlns:xlink="http://www.w3.org/1999/xlink">
    <title>doubao</title>
    <g id="doubao" stroke="none" fill="none" fill-rule="evenodd" stroke-width="1">
        <g id="Doubao" transform="translate(2, 0)" fill="#000000">
            <path d="M5.08,21.008 C5.30933333,16.008 7.59066667,13.0093333 8.47866667,12.0226667 C4.132,14.7666667 1.24533333,19.5666667 0.00133333333,23.1 L0.00133333333,24.5933333 C0.00133333333,28.684 3.63466667,32.0000076 8.12,32.0000076 C9.11909326,32.0013138 10.1110929,31.8322229 11.0533333,31.5 C11.524,31.34 11.9866667,31.1693333 12.4386667,30.996 C13.656,29.7973333 14.6386667,28.4493333 15.4293333,27.0066667 C8.92666667,30.248 4.79733333,27.1026667 5.07866667,21.0066667 L5.08133333,21.008 L5.08,21.008 Z" id="路径" fill-opacity="0.5"></path>
            <path d="M28.0933333,13.7106667 C26.4773333,12.5093333 22.6146667,10.5053333 18.2306667,9.97733333 C18.624,15.0333333 18.3546667,21.6653333 15.4306667,27.008 C14.6343259,28.4772837 13.6262036,29.8214468 12.4386667,30.9973333 C17.4573333,29.0666667 21.4333333,26.388 23.9,24.0386667 C27.66,20.4613333 28.3706667,17.1346667 28.3814136,15.1586667 C28.3846253,14.6623163 28.2866273,14.1705116 28.0933333,13.7133333 L28.0933333,13.7106667 L28.0933333,13.7106667 Z M17.0706667,2.48933333 C15.2733333,0.933333333 12.9973333,0 10.52,0 C8.04266667,0 5.844,0.902666667 4.06,2.40933333 C1.72133333,4.38666667 0.169333333,7.40933333 0,10.8333333 L0,23.1013333 C1.24266667,19.568 4.12933333,14.768 8.476,12.0253333 C9.14266667,11.6013333 9.84266667,11.232 10.568,10.92 C13.0786667,9.852 15.7386667,9.67733333 18.2293333,9.97866667 C17.9333333,6.20533333 17.272,3.30933333 17.0693333,2.48933333 L17.0706667,2.48933333 Z" id="形状"></path>
            <path d="M21.0733333,6.61466667 C20.5914615,6.1302959 20.1114579,5.64407006 19.6333333,5.156 C19.364,4.872 19.1026667,4.59733333 18.852,4.32666667 L17.0746667,2.48933333 C17.276,3.30933333 17.9386667,6.204 18.2333333,9.97866667 C22.6173333,10.5053333 26.48,12.5093333 28.0946667,13.712 C26.3533333,12.012 23.4613333,9.06266667 21.0733333,6.61466667 L21.0733333,6.61466667 Z" id="路径" fill-opacity="0.5"></path>
        </g>
    </g>
</svg>