<?xml version="1.0" encoding="UTF-8"?>
<svg width="32px" height="32px" viewBox="0 0 32 32" version="1.1" xmlns="http://www.w3.org/2000/svg" xmlns:xlink="http://www.w3.org/1999/xlink">
    <title>openai</title>
    <g id="openai" stroke="none" fill="none" fill-rule="evenodd" stroke-width="1">
        <g id="OpenAI" fill="#000000">
            <path d="M12.2733333,11.544 L12.2733333,8.53066667 C12.2733333,8.27733333 12.3693333,8.08666667 12.5906667,7.96 L18.648,4.472 C19.4733333,3.996 20.456,3.77466667 21.4706667,3.77466667 C25.276,3.77466667 27.6866667,6.724 27.6866667,9.86266667 C27.6866667,10.0853333 27.6866667,10.3386667 27.6546667,10.592 L21.3746667,6.91333333 C21.0265028,6.6916943 20.5814972,6.6916943 20.2333333,6.91333333 L12.2733333,11.544 L12.2733333,11.544 Z M26.4186667,23.2773333 L26.4186667,16.08 C26.4186667,15.636 26.228,15.32 25.8466667,15.0973333 L17.8866667,10.4666667 L20.4866667,8.976 C20.6792488,8.84928895 20.9287512,8.84928895 21.1213333,8.976 L27.1786667,12.4653333 C28.924,13.4786667 30.0973333,15.636 30.0973333,17.7293333 C30.0973333,20.14 28.6706667,22.36 26.4173333,23.28 L26.4186667,23.2773333 Z M10.4026667,16.9373333 L7.80266667,15.4146667 C7.58,15.288 7.484,15.0973333 7.484,14.844 L7.484,7.86533333 C7.484,4.472 10.084,1.90266667 13.6053333,1.90266667 C14.9386667,1.90266667 16.1746667,2.34666667 17.2213333,3.14 L10.9733333,6.756 C10.5933333,6.97733333 10.4026667,7.29466667 10.4026667,7.73866667 L10.4026667,16.936 L10.4026667,16.9373333 Z M16,20.1706667 L12.2733333,18.0773333 L12.2733333,13.6373333 L16,11.544 L19.7266667,13.6373333 L19.7266667,18.0773333 L16,20.1706667 Z M18.3946667,29.8106667 C17.0613333,29.8106667 15.8253333,29.368 14.7786667,28.5746667 L21.0266667,24.9586667 C21.4066667,24.7373333 21.5973333,24.42 21.5973333,23.976 L21.5973333,14.7786667 L24.2293333,16.3013333 C24.452,16.428 24.5466667,16.6186667 24.5466667,16.872 L24.5466667,23.8493333 C24.5466667,27.2426667 21.9146667,29.812 18.3946667,29.812 L18.3946667,29.8106667 Z M10.8786667,22.74 L4.82,19.2506667 C3.076,18.236 1.90263071,16.08 1.90263071,13.9866667 C1.89425609,11.5535756 3.36181117,9.35830728 5.61333333,8.436 L5.61333333,15.6666667 C5.61333333,16.1106667 5.804,16.428 6.184,16.6506667 L14.1133333,21.2493333 L11.5133333,22.74 C11.3208565,22.8670624 11.0711435,22.8670624 10.8786667,22.74 Z M10.5293333,27.94 C6.94533333,27.94 4.31333333,25.2453333 4.31333333,21.9146667 C4.31333333,21.6613333 4.34533333,21.408 4.376,21.1546667 L10.624,24.768 C11.0053333,24.9906667 11.3853333,24.9906667 11.7653333,24.768 L19.7253333,20.1706667 L19.7253333,23.184 C19.7253333,23.4373333 19.632,23.628 19.4093333,23.7546667 L13.352,27.2426667 C12.5266667,27.7186667 11.544,27.94 10.5293333,27.94 L10.5293333,27.94 Z M18.3946667,31.7133333 C22.1620448,31.7136378 25.4095108,29.0630546 26.164,25.372 C29.716,24.452 32,21.12 32,17.728 C32,15.508 31.0493333,13.352 29.336,11.7973333 C29.4946667,11.1306667 29.5893333,10.4653333 29.5893333,9.8 C29.5893333,5.26533333 25.9106667,1.87066667 21.6613333,1.87066667 C20.8053333,1.87066667 19.9813333,1.99733333 19.1546667,2.284 C17.6746639,0.82721146 15.6833433,0.00742479811 13.6066667,0 C9.83887968,0 6.59127086,2.65108204 5.83733333,6.34266667 C2.284,7.26266667 0,10.5933333 0,13.9866667 C0,16.208 0.950666667,18.364 2.664,19.9173333 C2.50533333,20.584 2.41066667,21.2506667 2.41066667,21.916 C2.41066667,26.4506667 6.08933333,29.844 10.3386667,29.844 C11.1946667,29.844 12.0186667,29.7173333 12.8453333,29.432 C14.3255061,30.8893521 16.3174713,31.7092071 18.3946667,31.716 L18.3946667,31.7133333 Z" id="形状"></path>
        </g>
    </g>
</svg>