<?xml version="1.0" encoding="UTF-8"?>
<svg width="32px" height="32px" viewBox="0 0 32 32" version="1.1" xmlns="http://www.w3.org/2000/svg" xmlns:xlink="http://www.w3.org/1999/xlink">
    <title>qwen</title>
    <g id="qwen" stroke="none" fill="none" fill-rule="evenodd" stroke-width="1">
        <g id="Qwen" transform="translate(1.3327, 1.3329)" fill="#000000">
            <path d="M15.4726505,0.453752005 C15.9966505,1.37375201 16.5179839,2.29641867 17.0379839,3.22041867 C17.0807786,3.29565057 17.1607657,3.34201256 17.2473172,3.34175201 L24.6499839,3.34175201 C24.8819839,3.34175201 25.0793172,3.48841867 25.2446505,3.77775201 L27.1833172,7.20441867 C27.4366505,7.65375201 27.5033172,7.84175201 27.2153172,8.32041867 C26.8686505,8.89375201 26.5313172,9.47241867 26.2019839,10.053752 L25.7126505,10.9310853 C25.5713172,11.1924187 25.4153172,11.3044187 25.6593172,11.613752 L29.1953172,17.7964187 C29.4246505,18.197752 29.3433172,18.4550853 29.1379839,18.8230853 C28.5553172,19.869752 27.9619839,20.9084187 27.3579839,21.9430853 C27.1459839,22.305752 26.8886505,22.4430853 26.4513172,22.4364187 C25.4153172,22.4150853 24.3819839,22.4230853 23.3486505,22.457752 C23.3036282,22.4600735 23.2629041,22.4852118 23.2406505,22.5244187 C22.048431,24.6367779 20.8461953,26.7434683 19.6339839,28.8444187 C19.4086505,29.2350853 19.1273172,29.3284187 18.6673172,29.329752 C17.3379839,29.333806 15.9979839,29.3350853 14.6446505,29.3324187 C14.3881855,29.3317065 14.1516886,29.1938771 14.0246505,28.9710853 L12.2446505,25.873752 C12.2235145,25.832392 12.1804081,25.8069436 12.1339839,25.8084187 L5.30998387,25.8084187 C4.92998387,25.8484187 4.57265054,25.8070853 4.23665054,25.685752 L2.09931721,21.9924187 C1.97069411,21.7699046 1.96967921,21.4958794 2.09665054,21.2724187 L3.70598387,18.445752 C3.75263146,18.3644096 3.75263146,18.2644277 3.70598387,18.1830853 C2.86767603,16.7317194 2.03433781,15.2774886 1.20598387,13.8204187 L0.152650539,11.9604187 C-0.0606827939,11.5470853 -0.0780161272,11.2990853 0.279317206,10.673752 C0.899317206,9.58975201 1.51531721,8.50708534 2.12865054,7.42575201 C2.30465054,7.11375201 2.53398387,6.98041867 2.90731721,6.97908534 C4.05797796,6.97423787 5.20865305,6.97379342 6.35931721,6.97775201 C6.41847646,6.97729378 6.47288224,6.94526047 6.50198387,6.89375201 L10.2433172,0.367085339 C10.3587208,0.164997339 10.5732677,0.0399297221 10.8059839,0.0390853386 C11.5046505,0.0377520053 12.2099839,0.0390853386 12.9166505,0.0310853386 L14.2726505,0.000198247362 C14.7273172,-0.00358132808 15.2379839,0.0430853386 15.4726505,0.453752005 Z M10.8966505,0.991082843 C10.868051,0.991082843 10.841617,1.00631737 10.8273172,1.03108534 L7.00598387,7.71775201 C6.96865281,7.78186665 6.90017412,7.82143212 6.82598387,7.82175201 L3.00465054,7.82175201 C2.92998387,7.82175201 2.91131721,7.85508534 2.94998387,7.92041867 L10.6966505,21.461752 C10.7299839,21.517752 10.7139839,21.5444187 10.6513172,21.545752 L6.92465054,21.565752 C6.81349146,21.5620428 6.70996116,21.6220903 6.65798387,21.7204187 L4.89798387,24.8004187 C4.83931721,24.9044187 4.86998387,24.957752 4.98865054,24.957752 L12.6099839,24.9684187 C12.6713172,24.9684187 12.7166505,24.9950853 12.7486505,25.049752 L14.6193172,28.321752 C14.6806505,28.429752 14.7419839,28.4310853 14.8046505,28.321752 L21.4793172,16.641752 L22.5233172,14.7990853 C22.5362816,14.7759099 22.560762,14.7615539 22.5873172,14.7615539 C22.6138724,14.7615539 22.6383528,14.7759099 22.6513172,14.7990853 L24.5499839,18.1724187 C24.5790158,18.2238207 24.6336177,18.2554591 24.6926505,18.2550853 L28.3766505,18.2284187 C28.3958755,18.2285908 28.4137051,18.2184024 28.4233172,18.201752 C28.4325775,18.1851801 28.4325775,18.1649905 28.4233172,18.1484187 L24.5566505,11.3670853 C24.528281,11.3208695 24.528281,11.2626345 24.5566505,11.2164187 L24.9473172,10.5404187 L26.4406505,7.90441867 C26.4726505,7.84975201 26.4566505,7.82175201 26.3939839,7.82175201 L10.9339839,7.82175201 C10.8553172,7.82175201 10.8366505,7.78708534 10.8766505,7.71908534 L12.7886505,4.37908534 C12.8178881,4.33263662 12.8178881,4.27353406 12.7886505,4.22708534 L10.9673172,1.03241867 C10.9531294,1.0067189 10.9260056,0.991082843 10.8966505,0.991082843 Z M19.2833172,11.6844187 C19.3446505,11.6844187 19.3606505,11.7110853 19.3286505,11.7644187 L18.2193172,13.717752 L14.7353172,19.8310853 C14.7219779,19.855333 14.6963213,19.8702138 14.6686505,19.8697625 C14.6411314,19.869643 14.6157433,19.8549179 14.6019839,19.8310853 L9.99798387,11.7884187 C9.97131721,11.7430853 9.98465054,11.7190853 10.0353172,11.7164187 L10.3233172,11.7004187 L19.2859839,11.6844187 L19.2833172,11.6844187 Z" id="形状"></path>
        </g>
    </g>
</svg>