<?xml version="1.0" encoding="us-ascii" standalone="no"?><svg xmlns="http://www.w3.org/2000/svg" xmlns:xlink="http://www.w3.org/1999/xlink" contentStyleType="text/css" height="434px" preserveAspectRatio="none" style="width:577px;height:434px;background:#FFFFFF;" version="1.1" viewBox="0 0 577 434" width="577px" zoomAndPan="magnify"><defs/><g><text fill="#000000" font-family="sans-serif" font-size="14" font-weight="bold" lengthAdjust="spacing" textLength="304" x="129.5" y="26.2399">Qt Wayland Compositor + &#25554;&#20214;&#29420;&#31435;&#36827;&#31243;&#26550;&#26500;&#22270;</text><!--entity Compositor--><g id="elem_Compositor"><rect fill="#F1F1F1" height="60.5438" rx="2.5" ry="2.5" style="stroke:#181818;stroke-width:0.5;" width="226" x="190" y="206.7719"/><text fill="#000000" font-family="sans-serif" font-size="14" lengthAdjust="spacing" textLength="182" x="200" y="233.0118">Qt Wayland Compositor&#36827;&#31243;</text><text fill="#000000" font-family="sans-serif" font-size="14" lengthAdjust="spacing" textLength="206" x="200" y="253.2838">(&#31383;&#21475;&#31649;&#29702;&#12289;&#28210;&#26579;&#12289;&#36755;&#20837;&#20107;&#20214;&#20998;&#21457;)</text></g><!--entity ??--><g id="elem_&#29992;&#25143;"><ellipse cx="303" cy="55.2719" fill="#F1F1F1" rx="8" ry="8" style="stroke:#181818;stroke-width:0.5;"/><path d="M303,63.2719 L303,90.2719 M290,71.2719 L316,71.2719 M303,90.2719 L290,105.2719 M303,90.2719 L316,105.2719 " fill="none" style="stroke:#181818;stroke-width:0.5;"/><text fill="#000000" font-family="sans-serif" font-size="14" lengthAdjust="spacing" textLength="28" x="289" y="123.0118">&#29992;&#25143;</text></g><!--entity PluginA--><g id="elem_PluginA"><rect fill="#F1F1F1" height="60.5438" rx="2.5" ry="2.5" style="stroke:#181818;stroke-width:0.5;" width="184" x="7" y="352.2719"/><text fill="#000000" font-family="sans-serif" font-size="14" lengthAdjust="spacing" textLength="71" x="17" y="378.5118">&#25554;&#20214; A &#36827;&#31243;</text><text fill="#000000" font-family="sans-serif" font-size="14" lengthAdjust="spacing" textLength="164" x="17" y="398.7838">(&#29420;&#31435;&#36827;&#31243;&#65292;&#29983;&#25104;&#31383;&#21475;&#20869;&#23481;)</text></g><!--entity PluginB--><g id="elem_PluginB"><rect fill="#F1F1F1" height="60.5438" rx="2.5" ry="2.5" style="stroke:#181818;stroke-width:0.5;" width="184" x="245" y="352.2719"/><text fill="#000000" font-family="sans-serif" font-size="14" lengthAdjust="spacing" textLength="71" x="255" y="378.5118">&#25554;&#20214; B &#36827;&#31243;</text><text fill="#000000" font-family="sans-serif" font-size="14" lengthAdjust="spacing" textLength="164" x="255" y="398.7838">(&#29420;&#31435;&#36827;&#31243;&#65292;&#29983;&#25104;&#31383;&#21475;&#20869;&#23481;)</text></g><!--entity Screen--><g id="elem_Screen"><path d="M474,357.7719 C474,347.7719 517,347.7719 517,347.7719 C517,347.7719 560,347.7719 560,357.7719 L560,407.3157 C560,417.3157 517,417.3157 517,417.3157 C517,417.3157 474,417.3157 474,407.3157 L474,357.7719 " fill="#F1F1F1" style="stroke:#181818;stroke-width:0.5;"/><path d="M474,357.7719 C474,367.7719 517,367.7719 517,367.7719 C517,367.7719 560,367.7719 560,357.7719 " fill="none" style="stroke:#181818;stroke-width:0.5;"/><text fill="#000000" font-family="sans-serif" font-size="14" lengthAdjust="spacing" textLength="64" x="484" y="388.0118">'&#23631;&#24149;'&#26174;&#31034;</text><text fill="#000000" font-family="sans-serif" font-size="14" lengthAdjust="spacing" textLength="66" x="484" y="408.2838">(&#21512;&#25104;&#31383;&#21475;)</text></g><!--link ?? to Compositor--><g id="link_&#29992;&#25143;_Compositor"><path d="M303,126.7919 C303,151.7119 303,177.5219 303,200.4319 " fill="none" id="&#29992;&#25143;-to-Compositor" style="stroke:#181818;stroke-width:1.0;"/><polygon fill="#181818" points="303,206.4319,307,197.4319,303,201.4319,299,197.4319,303,206.4319" style="stroke:#181818;stroke-width:1.0;"/><text fill="#000000" font-family="sans-serif" font-size="13" lengthAdjust="spacing" textLength="52" x="304" y="172.8519">&#36755;&#20837;&#20107;&#20214;</text></g><!--link Compositor to PluginA--><g id="link_Compositor_PluginA"><path d="M189.83,256.4119 C144.4,266.2119 99.56,279.9919 86,297.7719 C74.28,313.1419 75.9007,329.1464 82.2807,346.6064 " fill="none" id="Compositor-to-PluginA" style="stroke:#181818;stroke-width:1.0;"/><polygon fill="#181818" points="84.34,352.2419,85.0081,342.4157,82.6239,347.5456,77.4941,345.1614,84.34,352.2419" style="stroke:#181818;stroke-width:1.0;"/><text fill="#000000" font-family="sans-serif" font-size="13" lengthAdjust="spacing" textLength="52" x="87" y="313.8519">&#20998;&#21457;&#20107;&#20214;</text></g><!--link PluginA to Compositor--><g id="link_PluginA_Compositor"><path d="M136.07,352.1719 C157.12,335.6919 184.15,315.0719 209,297.7719 C223.42,287.7319 234.3958,280.5139 249.0858,271.2439 " fill="none" id="PluginA-to-Compositor" style="stroke:#181818;stroke-width:1.0;"/><polygon fill="#181818" points="254.16,268.0419,244.4141,269.4621,249.9315,270.7103,248.6834,276.2277,254.16,268.0419" style="stroke:#181818;stroke-width:1.0;"/><text fill="#000000" font-family="sans-serif" font-size="13" lengthAdjust="spacing" textLength="78" x="210" y="313.8519">&#21457;&#36865;&#31383;&#21475;&#25968;&#25454;</text></g><!--link Compositor to PluginB--><g id="link_Compositor_PluginB"><path d="M297.76,267.8119 C296.1,282.9819 295.67,301.6319 300,317.7719 C303.19,329.6719 306.0782,336.5219 312.3382,346.8419 " fill="none" id="Compositor-to-PluginB" style="stroke:#181818;stroke-width:1.0;"/><polygon fill="#181818" points="315.45,351.9719,314.2023,342.2024,312.8568,347.6969,307.3623,346.3515,315.45,351.9719" style="stroke:#181818;stroke-width:1.0;"/><text fill="#000000" font-family="sans-serif" font-size="13" lengthAdjust="spacing" textLength="52" x="301" y="313.8519">&#20998;&#21457;&#20107;&#20214;</text></g><!--link PluginB to Compositor--><g id="link_PluginB_Compositor"><path d="M353.25,352.0419 C360,335.7119 364.85,315.2719 358,297.7719 C353.69,286.7719 350.3437,281.0055 342.3437,272.2755 " fill="none" id="PluginB-to-Compositor" style="stroke:#181818;stroke-width:1.0;"/><polygon fill="#181818" points="338.29,267.8519,341.4215,277.1897,341.668,271.5382,347.3195,271.7848,338.29,267.8519" style="stroke:#181818;stroke-width:1.0;"/><text fill="#000000" font-family="sans-serif" font-size="13" lengthAdjust="spacing" textLength="78" x="362" y="313.8519">&#21457;&#36865;&#31383;&#21475;&#25968;&#25454;</text></g><!--link Compositor to Screen--><g id="link_Compositor_Screen"><path d="M395.94,267.9219 C414.45,276.0419 433.07,285.9419 449,297.7719 C467.23,311.3019 479.9339,325.9285 491.9339,342.7385 " fill="none" id="Compositor-to-Screen" style="stroke:#181818;stroke-width:1.0;"/><polygon fill="#181818" points="495.42,347.6219,493.4465,337.9728,492.515,343.5524,486.9353,342.6209,495.42,347.6219" style="stroke:#181818;stroke-width:1.0;"/><text fill="#000000" font-family="sans-serif" font-size="13" lengthAdjust="spacing" textLength="91" x="471" y="313.8519">&#21512;&#25104;&#31383;&#21475;&#21040;&#23631;&#24149;</text></g><!--SRC=[dP11IiD068Nt_oc6Rg98B-12QBo0uiADcp4D9H0JQU92H6Z0Xa2KfBPLeT0YAXILK0MhgH8FOsUchho24yPgh4N4tS2yzxttFrkpTHKjssWLR-lOAA95SsFJj3JRBACvH8F3uMEV-TVioXyzjrZNf-q-RU-HLWA0bLJ46btgtGEKLSN6Hed3SbDfmhvcpB3BOnASiUYKXUvBnQ4FjxHJvuzHKYVLY-70vud4SqbGcyqXR6KBxS3kjo1H3nNG5pnJzUrfdpKwr0j58d6h98e5SqdVAcb6OGfB_YTB1YXY6wzZYxCaSXEGk2dHauIT3pYAXDwdLxXMbBAg6W0IeiqUFOZedKEFOXBMG0oAylc5xEdpABiFP7vIuSSzN2MM-qqbJwfWxFuHoJMl5KVK5ZLXpFYBTZ9Vt9ngCtCGhoVMWdS0]--></g></svg>