<?xml version="1.0" encoding="UTF-8"?>
<svg width="64px" height="64px" viewBox="0 0 64 64" version="1.1" xmlns="http://www.w3.org/2000/svg" xmlns:xlink="http://www.w3.org/1999/xlink">
    <title>UosAiAssistant</title>
    <defs>
        <linearGradient x1="50%" y1="106.87104%" x2="50%" y2="-8.08228935%" id="linearGradient-1">
            <stop stop-color="#001563" offset="0%"></stop>
            <stop stop-color="#0065CB" offset="99.0763631%"></stop>
        </linearGradient>
        <linearGradient x1="87.1624628%" y1="28.2548315%" x2="24.8279206%" y2="88.4663437%" id="linearGradient-2">
            <stop stop-color="#006CFF" offset="0%"></stop>
            <stop stop-color="#4B95EA" stop-opacity="0" offset="100%"></stop>
        </linearGradient>
        <linearGradient x1="66.6310016%" y1="50%" x2="15.7537607%" y2="35.0958664%" id="linearGradient-3">
            <stop stop-color="#5ADB70" stop-opacity="0" offset="0%"></stop>
            <stop stop-color="#11FFA4" offset="100%"></stop>
        </linearGradient>
        <linearGradient x1="28.101057%" y1="100%" x2="86.5665587%" y2="23.5866707%" id="linearGradient-4">
            <stop stop-color="#EEC61F" offset="0%"></stop>
            <stop stop-color="#8EFFC5" stop-opacity="0" offset="100%"></stop>
        </linearGradient>
        <linearGradient x1="86.6545196%" y1="73.9758333%" x2="50%" y2="54.99656%" id="linearGradient-5">
            <stop stop-color="#D840A5" offset="0%"></stop>
            <stop stop-color="#8EFFC5" stop-opacity="0" offset="100%"></stop>
        </linearGradient>
        <linearGradient x1="50%" y1="109.360765%" x2="50%" y2="-8.83481406%" id="linearGradient-6">
            <stop stop-color="#0069D2" offset="0%"></stop>
            <stop stop-color="#130B75" offset="100%"></stop>
        </linearGradient>
        <radialGradient cx="47.2363886%" cy="28.1009336%" fx="47.2363886%" fy="28.1009336%" r="85.8090926%" gradientTransform="translate(0.472364,0.281009),scale(1.000000,0.977149),rotate(90.000000),translate(-0.472364,-0.281009)" id="radialGradient-7">
            <stop stop-color="#EFF5FF" offset="0%"></stop>
            <stop stop-color="#E4EEFF" offset="40.9128%"></stop>
            <stop stop-color="#B6D1FF" offset="100%"></stop>
            <stop stop-color="#B6D1FF" offset="100%"></stop>
        </radialGradient>
    </defs>
    <g id="UosAiAssistant" stroke="none" stroke-width="1" fill="none" fill-rule="evenodd">
        <g transform="translate(4.000000, 4.000000)">
            <path d="M12.3603604,0 L43.6396396,0 C50.4660782,0 56,5.53392183 56,12.3603604 L56,43.6396396 C56,50.4660782 50.4660782,56 43.6396396,56 L12.3603604,56 C5.53392183,56 0,50.4660782 0,43.6396396 L0,12.3603604 C0,5.53392183 5.53392183,0 12.3603604,0 Z" id="蒙版" fill="url(#linearGradient-1)" fill-rule="nonzero"></path>
            <g id="路径" transform="translate(2.270270, 3.153153)">
                <g id="path-7-link" fill="url(#linearGradient-2)">
                    <path d="M25.7090587,-1.33226763e-15 C37.6381762,-1.33226763e-15 47.6130442,8.32459375 48.1849775,25.3284937 C48.2867336,27.073567 48.2053477,28.9639938 47.9607292,30.936043 C48.2343534,31.3493234 48.5011209,31.7791252 48.7582006,32.2238818 C51.8394169,37.5545038 52.3621638,43.0148089 49.9257861,44.4198164 C48.6142338,45.1761605 46.7125211,44.6031426 44.7554438,43.0812552 C43.3714723,46.5708237 41.6268505,49.9316762 39.6204665,52.8476868 L11.8529555,52.8461358 C9.92998867,49.9164776 8.26731857,46.5108743 6.92039951,42.9085896 C4.88830053,44.5589753 2.89369462,45.2041112 1.5336739,44.4198164 C-0.902703862,43.0148089 -0.379956902,37.5545038 2.70125933,32.2238818 C3.01792992,31.676031 3.34930017,31.1508713 3.69164856,30.6510509 C3.40530182,28.8394808 3.20992781,27.0541802 3.1116485,25.3284937 C2.9754311,9.97324135 13.6545158,-1.33226763e-15 25.7090587,-1.33226763e-15 Z" id="path-7"></path>
                </g>
                <g id="path-7-link" fill="url(#linearGradient-3)">
                    <path d="M25.7090587,-1.33226763e-15 C37.6381762,-1.33226763e-15 47.6130442,8.32459375 48.1849775,25.3284937 C48.2867336,27.073567 48.2053477,28.9639938 47.9607292,30.936043 C48.2343534,31.3493234 48.5011209,31.7791252 48.7582006,32.2238818 C51.8394169,37.5545038 52.3621638,43.0148089 49.9257861,44.4198164 C48.6142338,45.1761605 46.7125211,44.6031426 44.7554438,43.0812552 C43.3714723,46.5708237 41.6268505,49.9316762 39.6204665,52.8476868 L11.8529555,52.8461358 C9.92998867,49.9164776 8.26731857,46.5108743 6.92039951,42.9085896 C4.88830053,44.5589753 2.89369462,45.2041112 1.5336739,44.4198164 C-0.902703862,43.0148089 -0.379956902,37.5545038 2.70125933,32.2238818 C3.01792992,31.676031 3.34930017,31.1508713 3.69164856,30.6510509 C3.40530182,28.8394808 3.20992781,27.0541802 3.1116485,25.3284937 C2.9754311,9.97324135 13.6545158,-1.33226763e-15 25.7090587,-1.33226763e-15 Z" id="path-7"></path>
                </g>
                <g id="path-7-link" fill="url(#linearGradient-4)">
                    <path d="M25.7090587,-1.33226763e-15 C37.6381762,-1.33226763e-15 47.6130442,8.32459375 48.1849775,25.3284937 C48.2867336,27.073567 48.2053477,28.9639938 47.9607292,30.936043 C48.2343534,31.3493234 48.5011209,31.7791252 48.7582006,32.2238818 C51.8394169,37.5545038 52.3621638,43.0148089 49.9257861,44.4198164 C48.6142338,45.1761605 46.7125211,44.6031426 44.7554438,43.0812552 C43.3714723,46.5708237 41.6268505,49.9316762 39.6204665,52.8476868 L11.8529555,52.8461358 C9.92998867,49.9164776 8.26731857,46.5108743 6.92039951,42.9085896 C4.88830053,44.5589753 2.89369462,45.2041112 1.5336739,44.4198164 C-0.902703862,43.0148089 -0.379956902,37.5545038 2.70125933,32.2238818 C3.01792992,31.676031 3.34930017,31.1508713 3.69164856,30.6510509 C3.40530182,28.8394808 3.20992781,27.0541802 3.1116485,25.3284937 C2.9754311,9.97324135 13.6545158,-1.33226763e-15 25.7090587,-1.33226763e-15 Z" id="path-7"></path>
                </g>
                <g id="path-7-link" fill="url(#linearGradient-5)">
                    <path d="M25.7090587,-1.33226763e-15 C37.6381762,-1.33226763e-15 47.6130442,8.32459375 48.1849775,25.3284937 C48.2867336,27.073567 48.2053477,28.9639938 47.9607292,30.936043 C48.2343534,31.3493234 48.5011209,31.7791252 48.7582006,32.2238818 C51.8394169,37.5545038 52.3621638,43.0148089 49.9257861,44.4198164 C48.6142338,45.1761605 46.7125211,44.6031426 44.7554438,43.0812552 C43.3714723,46.5708237 41.6268505,49.9316762 39.6204665,52.8476868 L11.8529555,52.8461358 C9.92998867,49.9164776 8.26731857,46.5108743 6.92039951,42.9085896 C4.88830053,44.5589753 2.89369462,45.2041112 1.5336739,44.4198164 C-0.902703862,43.0148089 -0.379956902,37.5545038 2.70125933,32.2238818 C3.01792992,31.676031 3.34930017,31.1508713 3.69164856,30.6510509 C3.40530182,28.8394808 3.20992781,27.0541802 3.1116485,25.3284937 C2.9754311,9.97324135 13.6545158,-1.33226763e-15 25.7090587,-1.33226763e-15 Z" id="path-7"></path>
                </g>
            </g>
            <path d="M37.7747748,23.963964 C40.3172748,23.963964 42.3783784,21.9028604 42.3783784,19.3603604 C42.3783784,16.8178603 40.3172748,14.7567568 37.7747748,14.7567568 C35.2322747,14.7567568 33.1711712,16.8178603 33.1711712,19.3603604 C33.1711712,21.9028604 35.2322747,23.963964 37.7747748,23.963964 Z M18.2252252,23.963964 C20.7677253,23.963964 22.8288288,21.9028604 22.8288288,19.3603604 C22.8288288,16.8178603 20.7677253,14.7567568 18.2252252,14.7567568 C15.6827252,14.7567568 13.6216216,16.8178603 13.6216216,19.3603604 C13.6216216,21.9028604 15.6827252,23.963964 18.2252252,23.963964 Z" id="形状结合" fill="#FFFFFF" fill-rule="nonzero"></path>
            <path d="M37.7747748,15.8470839 C39.8489196,15.8470839 41.5303461,17.5285105 41.5303461,19.6026553 C41.5303461,21.6768001 39.8489196,23.3582266 37.7747748,23.3582266 C35.70063,23.3582266 34.0192034,21.6768001 34.0192034,19.6026553 C34.0192034,17.5285105 35.70063,15.8470839 37.7747748,15.8470839 Z M39.8342817,20.2083926 C39.2990185,20.2083926 38.8651019,20.6423091 38.8651019,21.1775723 C38.8651019,21.7128355 39.2990185,22.146752 39.8342817,22.146752 C40.3695448,22.146752 40.8034614,21.7128355 40.8034614,21.1775723 C40.8034614,20.6423091 40.3695448,20.2083926 39.8342817,20.2083926 Z M18.2252252,15.8470839 C20.29937,15.8470839 21.9807966,17.5285105 21.9807966,19.6026553 C21.9807966,21.6768001 20.29937,23.3582266 18.2252252,23.3582266 C16.1510804,23.3582266 14.4696539,21.6768001 14.4696539,19.6026553 C14.4696539,17.5285105 16.1510804,15.8470839 18.2252252,15.8470839 Z M20.2847321,20.2083926 C19.7494689,20.2083926 19.3155524,20.6423091 19.3155524,21.1775723 C19.3155524,21.7128355 19.7494689,22.146752 20.2847321,22.146752 C20.8199953,22.146752 21.2539118,21.7128355 21.2539118,21.1775723 C21.2539118,20.6423091 20.8199953,20.2083926 20.2847321,20.2083926 Z" id="形状结合" fill="url(#linearGradient-6)" fill-rule="nonzero"></path>
            <path d="M18.4774775,11.1672297 C19.1058398,11.1672297 19.6861567,11.3402928 20.19267,11.8297242 C20.4160747,12.0455948 20.4221823,12.4016977 20.2063118,12.6251024 C19.9904413,12.8485071 19.6343384,12.8546148 19.4109337,12.6387442 C19.1468246,12.3835421 18.8406351,12.2922297 18.4774775,12.2922297 C18.1068134,12.2922297 17.7780584,12.3884675 17.5648904,12.6174818 C17.3532286,12.844878 16.9973017,12.8576332 16.7699056,12.6459714 C16.5425094,12.4343096 16.5297541,12.0783828 16.7414159,11.8509866 C17.2104288,11.3471086 17.8249079,11.1672297 18.4774775,11.1672297 Z M28.0630631,24.3378378 C27.0761106,24.3378378 26.3452835,23.5941582 26.1239019,22.5701 C26.0655532,22.3001926 26.2370554,22.0340883 26.5069628,21.9757396 C26.7768703,21.9173908 27.0429745,22.088893 27.1013233,22.3588005 C27.2316036,22.9614462 27.6014903,23.3378378 28.0630631,23.3378378 C28.5745449,23.3378378 28.9356442,22.9912747 29.0180433,22.3832992 C29.0551299,22.1096586 29.3070241,21.9178937 29.5806648,21.9549803 C29.8543054,21.9920669 30.0460703,22.2439611 30.0089837,22.5176017 C29.8619071,23.6027948 29.0960337,24.3378378 28.0630631,24.3378378 Z M37.5225225,11.1672297 C38.1508848,11.1672297 38.7312017,11.3402928 39.237715,11.8297242 C39.4611197,12.0455948 39.4672274,12.4016977 39.2513568,12.6251024 C39.0354863,12.8485071 38.6793834,12.8546148 38.4559787,12.6387442 C38.1918696,12.3835421 37.8856802,12.2922297 37.5225225,12.2922297 C37.1518585,12.2922297 36.8231034,12.3884675 36.6099354,12.6174818 C36.3982736,12.844878 36.0423468,12.8576332 35.8149506,12.6459714 C35.5875544,12.4343096 35.5747992,12.0783828 35.786461,11.8509866 C36.2554739,11.3471086 36.8699529,11.1672297 37.5225225,11.1672297 Z" id="形状结合" fill="#00244E" fill-rule="nonzero"></path>
            <path d="M41.4797588,40.2081012 C41.707843,45.8544777 39.4316203,51.8338382 36.274217,56.0005513 L19.7980765,56.0005513 C16.6263087,51.7946624 14.3288868,45.7648106 14.5150573,40.2081012 C14.8413551,30.4689565 20.4095056,28.4287944 27.7190023,28.3793121 L27.9974081,28.3783784 C35.4435048,28.3783784 41.0726872,30.1307684 41.4797588,40.2081012 Z" id="形状结合" fill="url(#radialGradient-7)" fill-rule="nonzero"></path>
        </g>
    </g>
</svg>