<?xml version="1.0" encoding="UTF-8"?>
<svg width="16px" height="16px" viewBox="0 0 16 16" version="1.1" xmlns="http://www.w3.org/2000/svg" xmlns:xlink="http://www.w3.org/1999/xlink">
    <title>status-ai-assistant</title>
    <g id="status-ai-assistant" stroke="none" stroke-width="1" fill="none" fill-rule="evenodd">
        <path d="M7.99616431,1 C11.4628906,1 13.9398062,3.48984862 14.1639017,7.64561902 L14.173317,7.86212917 C14.1951044,8.23534257 14.1862503,8.63383601 14.1479564,9.05118133 L14.1333864,9.184 L14.2517397,9.3807828 C15.1459441,10.9260091 15.3125778,12.9109031 14.3635062,13.4575823 C13.9573927,13.6915096 13.7096527,13.6630112 13.210467,13.312886 L13.0123864,13.167 L12.943582,13.3192096 C12.8059659,13.6127462 12.6412663,13.9428577 12.4493386,14.3100657 L12.1413472,14.888601 C11.9378362,15.2646515 11.5449152,15.499244 11.1164459,15.4999893 L4.89116096,15.4998338 C4.46178773,15.5008504 4.0665584,15.2659362 3.86268714,14.8890713 L3.57774873,14.351336 C3.400597,14.0075266 3.2490401,13.6929569 3.1229605,13.4068935 L3.01638641,13.157 L2.98936086,13.179864 C2.4152488,13.6199744 2.13695502,13.7089877 1.73452877,13.508868 L1.63926649,13.4575822 C0.690195059,12.9109031 0.856828687,10.9260091 1.7510334,9.38078235 L1.91138641,9.117 L1.87303148,8.83958 C1.85336623,8.68244519 1.83639655,8.52561617 1.82213528,8.36850147 L1.78748959,7.89570889 C1.75216228,3.91798623 4.50591663,1 7.99616431,1 Z M7.99616431,2 C5.07297219,2 2.7569634,4.45413385 2.78665913,7.86280639 C2.8104302,8.27972189 2.85780339,8.71357133 2.92782283,9.15627033 C2.94779713,9.28255811 2.91863292,9.41169961 2.84632547,9.51714726 C2.76626321,9.63390395 2.68945131,9.75568608 2.61655662,9.88165114 C1.96579393,11.0061989 1.8468425,12.4231157 2.1383982,12.5910561 C2.11098144,12.5752637 2.25092544,12.4885801 2.58121215,12.2264713 L2.9345037,11.938978 C3.21235795,11.7134547 3.63025595,11.8443202 3.72985006,12.1880421 C3.87774787,12.6984711 4.21518779,13.443167 4.74180725,14.4124718 C4.77099296,14.4664227 4.8274543,14.5 4.88998952,14.4998352 L5.5710553,14.5000114 C5.20708593,13.7452557 4.9842102,12.8839652 5.01206068,12.069476 C5.08286795,9.99871273 6.26717013,9.53039254 7.83706346,9.50147204 L8.00081184,9.5 C9.65145353,9.5 10.8993239,9.88062805 10.989563,12.069476 C11.0235738,12.8944437 10.8063925,13.7521369 10.4475328,14.5007004 L11.1155876,14.5 C11.1766714,14.5 11.232803,14.4663705 11.2618759,14.412649 L11.4017482,14.152184 C11.854239,13.3044827 12.1675726,12.6496748 12.3400489,12.193884 C12.4591209,11.879221 12.8487198,11.7695887 13.1144151,11.975979 L13.820162,12.5242332 C13.8661403,12.5625481 13.8802072,12.5819363 13.8643745,12.5910562 C14.1559303,12.4231157 14.0369789,11.0061989 13.3862165,9.88165159 C13.3273692,9.77996108 13.2652806,9.67980576 13.2004702,9.58178633 C13.1347253,9.48235347 13.1066673,9.36270359 13.1213549,9.2444092 C13.1685575,8.86423825 13.1896367,8.50290774 13.1839439,8.16350583 L13.1651047,7.69439082 C12.9691975,4.06178355 10.9181235,2 7.99616431,2 Z M8.00081184,10.44 C6.4763633,10.44 5.99677452,10.7778831 5.95151163,12.1015994 C5.92531819,12.8676282 6.191906,13.7602652 6.63796879,14.5003826 L9.381,14.5 L9.49044551,14.3102251 C9.82746293,13.6879424 10.034637,12.9783722 10.0518497,12.325996 L10.0503608,12.1081963 C9.99659704,10.8040978 9.58447792,10.4664587 8.18140317,10.4415341 L8.00081184,10.44 Z M8.83293477,7.43334486 C9.01306852,7.46106378 9.13662516,7.62956166 9.10890625,7.80969542 C9.02152595,8.37754377 8.57546778,8.75373797 7.99305149,8.75373797 C7.43732342,8.75373797 7.01319342,8.36912623 6.88287049,7.83816919 C6.83942595,7.66116896 6.94769422,7.48246316 7.12469445,7.43901862 C7.27956965,7.40100464 7.43575067,7.47914579 7.50148045,7.61785137 L7.52384502,7.68084257 C7.58588654,7.93360997 7.76246745,8.09373797 7.99305149,8.09373797 C8.2196793,8.09373797 8.37590921,7.98586913 8.43653067,7.7957547 L8.45658421,7.70931634 C8.48430313,7.52918258 8.65280101,7.40562594 8.83293477,7.43334486 Z M10.8930515,5.5 C11.3901078,5.5 11.7930515,5.90294373 11.7930515,6.4 C11.7930515,6.89705627 11.3901078,7.3 10.8930515,7.3 C10.3959952,7.3 9.99305149,6.89705627 9.99305149,6.4 C9.99305149,5.90294373 10.3959952,5.5 10.8930515,5.5 Z M5.09305149,5.5 C5.59010777,5.5 5.99305149,5.90294373 5.99305149,6.4 C5.99305149,6.89705627 5.59010777,7.3 5.09305149,7.3 C4.59599522,7.3 4.19305149,6.89705627 4.19305149,6.4 C4.19305149,5.90294373 4.59599522,5.5 5.09305149,5.5 Z M5.32638483,3.72970626 C5.54643304,3.72970626 5.7521525,3.7829039 5.93832277,3.93889115 C6.07802168,4.05594125 6.09638353,4.26407744 5.97933207,4.40377634 C5.86228197,4.54347524 5.65414578,4.56183573 5.51444688,4.44478563 C5.46785774,4.4057498 5.40581611,4.38970626 5.32638483,4.38970626 C5.26720098,4.38970626 5.21424403,4.39939284 5.17952199,4.41536152 L5.15132301,4.43329815 C5.01796847,4.55752808 4.809155,4.55013112 4.68492507,4.41677658 C4.56069514,4.28342203 4.5680921,4.07460856 4.70144664,3.95037864 C4.87918486,3.78480193 5.09623828,3.72970626 5.32638483,3.72970626 Z M10.6597182,3.72970626 C10.8797664,3.72970626 11.0854858,3.7829039 11.2716561,3.93889115 C11.411355,4.05594125 11.4297169,4.26407744 11.3126654,4.40377634 C11.1956153,4.54347524 10.9874791,4.56183573 10.8477802,4.44478563 C10.8011911,4.4057498 10.7391494,4.38970626 10.6597182,4.38970626 C10.5808064,4.38970626 10.5129646,4.40692685 10.4846563,4.43329815 C10.3513018,4.55752808 10.1424883,4.55013112 10.0182584,4.41677658 C9.89402847,4.28342203 9.90142543,4.07460856 10.03478,3.95037864 C10.2125182,3.78480193 10.4295716,3.72970626 10.6597182,3.72970626 Z" id="形状" fill="#FFFFFF"></path>
    </g>
</svg>